<svg xmlns="http://www.w3.org/2000/svg" viewBox="0 0 64 64" role="img" aria-label="HTML and CSS">
  <path d="M1 10h29l-2.6 39L15.5 53 3.6 49Z" fill="#e44d26"/>
  <path d="M15.5 13h11.2l-2.3 33.7-8.9 3Z" fill="#f16529"/>
  <path d="M7.4 19h17l-.4 5H12.8l.3 5h10.5l-1 14-7.1 2.2L8.4 43l-.5-7h5l.2 3.1 2.4.7 2.4-.7.4-5.1H8.3Z" fill="#fff"/>
  <path d="M34 10h29l-2.6 39L48.5 53 36.6 49Z" fill="#1572b6"/>
  <path d="M48.5 13h11.2l-2.3 33.7-8.9 3Z" fill="#33a9dc"/>
  <path d="M40.4 19h17l-1.5 24-7.4 2.2-7.1-2.2-.5-7h5l.2 3.1 2.4.7 2.7-.7.4-5.1H41.3l-.4-5h11l.3-5H40.8Z" fill="#fff"/>
</svg>
